<svg xmlns="http://www.w3.org/2000/svg" viewBox="0 0 1200 820">
  <defs>
    <!-- Background gradient — dark PCB green-black -->
    <linearGradient id="bg" x1="0%" y1="0%" x2="100%" y2="100%">
      <stop offset="0%" stop-color="#050d0a"/>
      <stop offset="50%" stop-color="#0a1a14"/>
      <stop offset="100%" stop-color="#050d0a"/>
    </linearGradient>

    <!-- Glow effects -->
    <filter id="glow-blue">
      <feGaussianBlur stdDeviation="6" result="blur"/>
      <feComposite in="SourceGraphic" in2="blur" operator="over"/>
    </filter>
    <filter id="glow-cyan">
      <feGaussianBlur stdDeviation="4" result="blur"/>
      <feComposite in="SourceGraphic" in2="blur" operator="over"/>
    </filter>
    <filter id="glow-text">
      <feGaussianBlur stdDeviation="2" result="blur"/>
      <feComposite in="SourceGraphic" in2="blur" operator="over"/>
    </filter>
    <filter id="glow-soft">
      <feGaussianBlur stdDeviation="10" result="blur"/>
      <feComposite in="SourceGraphic" in2="blur" operator="over"/>
    </filter>

    <!-- CPU chip gradient -->
    <linearGradient id="chip-bg" x1="0%" y1="0%" x2="100%" y2="100%">
      <stop offset="0%" stop-color="#1a2e28"/>
      <stop offset="100%" stop-color="#0f1e18"/>
    </linearGradient>
    <linearGradient id="chip-highlight" x1="0%" y1="0%" x2="0%" y2="100%">
      <stop offset="0%" stop-color="#2a4a3e" stop-opacity="0.6"/>
      <stop offset="100%" stop-color="#0f1e18" stop-opacity="0"/>
    </linearGradient>

    <!-- Radial glow for central processor -->
    <radialGradient id="cpu-glow" cx="50%" cy="50%" r="50%">
      <stop offset="0%" stop-color="#4aff9e" stop-opacity="0.25"/>
      <stop offset="60%" stop-color="#4aff9e" stop-opacity="0.05"/>
      <stop offset="100%" stop-color="#4aff9e" stop-opacity="0"/>
    </radialGradient>

    <!-- Agent body gradient -->
    <radialGradient id="agent-body" cx="50%" cy="30%" r="60%">
      <stop offset="0%" stop-color="#c0dcd4"/>
      <stop offset="100%" stop-color="#6a9e8c"/>
    </radialGradient>
    <radialGradient id="agent-eye" cx="50%" cy="40%" r="50%">
      <stop offset="0%" stop-color="#4aff9e"/>
      <stop offset="100%" stop-color="#20c070"/>
    </radialGradient>

    <!-- Trace color variants -->
    <linearGradient id="trace-h" x1="0%" y1="0%" x2="100%" y2="0%">
      <stop offset="0%" stop-color="#4aff9e" stop-opacity="0"/>
      <stop offset="50%" stop-color="#4aff9e" stop-opacity="0.6"/>
      <stop offset="100%" stop-color="#4aff9e" stop-opacity="0"/>
    </linearGradient>
    <linearGradient id="trace-v" x1="0%" y1="0%" x2="0%" y2="100%">
      <stop offset="0%" stop-color="#4aff9e" stop-opacity="0"/>
      <stop offset="50%" stop-color="#4aff9e" stop-opacity="0.6"/>
      <stop offset="100%" stop-color="#4aff9e" stop-opacity="0"/>
    </linearGradient>

    <!-- Robot/Agent symbol (reusable) -->
    <symbol id="agent" viewBox="0 0 30 36">
      <!-- Antenna -->
      <line x1="15" y1="0" x2="15" y2="5" stroke="#4aff9e" stroke-width="1.2" stroke-linecap="round"/>
      <circle cx="15" cy="0" r="1.8" fill="#4aff9e"/>
      <!-- Head -->
      <rect x="5" y="5" width="20" height="14" rx="4" fill="url(#agent-body)" stroke="#4aff9e" stroke-width="0.8"/>
      <!-- Eyes -->
      <circle cx="10.5" cy="12" r="2.5" fill="#0a1a14"/>
      <circle cx="19.5" cy="12" r="2.5" fill="#0a1a14"/>
      <circle cx="10.5" cy="12" r="1.5" fill="url(#agent-eye)"/>
      <circle cx="19.5" cy="12" r="1.5" fill="url(#agent-eye)"/>
      <!-- Body -->
      <rect x="7" y="21" width="16" height="10" rx="3" fill="url(#agent-body)" stroke="#4aff9e" stroke-width="0.6"/>
      <!-- Chest detail -->
      <rect x="11" y="23" width="8" height="3" rx="1" fill="#0a1a14" opacity="0.5"/>
      <rect x="12.5" y="24" width="5" height="1" rx="0.5" fill="#4aff9e" opacity="0.7"/>
      <!-- Arms -->
      <rect x="1" y="22" width="5" height="3" rx="1.5" fill="url(#agent-body)" stroke="#4aff9e" stroke-width="0.5"/>
      <rect x="24" y="22" width="5" height="3" rx="1.5" fill="url(#agent-body)" stroke="#4aff9e" stroke-width="0.5"/>
      <!-- Legs -->
      <rect x="9" y="31" width="4" height="5" rx="1.5" fill="url(#agent-body)" stroke="#4aff9e" stroke-width="0.4"/>
      <rect x="17" y="31" width="4" height="5" rx="1.5" fill="url(#agent-body)" stroke="#4aff9e" stroke-width="0.4"/>
    </symbol>

    <!-- Small chip symbol -->
    <symbol id="small-chip" viewBox="0 0 40 30">
      <rect x="5" y="3" width="30" height="24" rx="2" fill="#1a2e28" stroke="#2a5a46" stroke-width="0.8"/>
      <!-- Pins left -->
      <line x1="0" y1="8" x2="5" y2="8" stroke="#2a5a46" stroke-width="1"/>
      <line x1="0" y1="15" x2="5" y2="15" stroke="#2a5a46" stroke-width="1"/>
      <line x1="0" y1="22" x2="5" y2="22" stroke="#2a5a46" stroke-width="1"/>
      <!-- Pins right -->
      <line x1="35" y1="8" x2="40" y2="8" stroke="#2a5a46" stroke-width="1"/>
      <line x1="35" y1="15" x2="40" y2="15" stroke="#2a5a46" stroke-width="1"/>
      <line x1="35" y1="22" x2="40" y2="22" stroke="#2a5a46" stroke-width="1"/>
      <!-- Die -->
      <rect x="12" y="8" width="16" height="14" rx="1" fill="#0f1e18" stroke="#4aff9e" stroke-width="0.4" opacity="0.5"/>
    </symbol>

    <!-- Data pulse animation -->
    <symbol id="pulse" viewBox="0 0 6 6">
      <circle cx="3" cy="3" r="2.5" fill="#4aff9e" opacity="0.8"/>
      <circle cx="3" cy="3" r="1.2" fill="#ffffff" opacity="0.6"/>
    </symbol>
  </defs>

  <!-- ======================== BACKGROUND ======================== -->
  <rect width="1200" height="700" fill="url(#bg)"/>

  <!-- PCB substrate texture — fine grid -->
  <g opacity="0.035" stroke="#4aff9e" stroke-width="0.3">
    <!-- Horizontal lines every 20px -->
    <line x1="0" y1="20" x2="1200" y2="20"/><line x1="0" y1="40" x2="1200" y2="40"/>
    <line x1="0" y1="60" x2="1200" y2="60"/><line x1="0" y1="80" x2="1200" y2="80"/>
    <line x1="0" y1="100" x2="1200" y2="100"/><line x1="0" y1="120" x2="1200" y2="120"/>
    <line x1="0" y1="140" x2="1200" y2="140"/><line x1="0" y1="160" x2="1200" y2="160"/>
    <line x1="0" y1="180" x2="1200" y2="180"/><line x1="0" y1="200" x2="1200" y2="200"/>
    <line x1="0" y1="220" x2="1200" y2="220"/><line x1="0" y1="240" x2="1200" y2="240"/>
    <line x1="0" y1="260" x2="1200" y2="260"/><line x1="0" y1="280" x2="1200" y2="280"/>
    <line x1="0" y1="300" x2="1200" y2="300"/><line x1="0" y1="320" x2="1200" y2="320"/>
    <line x1="0" y1="340" x2="1200" y2="340"/><line x1="0" y1="360" x2="1200" y2="360"/>
    <line x1="0" y1="380" x2="1200" y2="380"/><line x1="0" y1="400" x2="1200" y2="400"/>
    <line x1="0" y1="420" x2="1200" y2="420"/><line x1="0" y1="440" x2="1200" y2="440"/>
    <line x1="0" y1="460" x2="1200" y2="460"/><line x1="0" y1="480" x2="1200" y2="480"/>
    <line x1="0" y1="500" x2="1200" y2="500"/><line x1="0" y1="520" x2="1200" y2="520"/>
    <line x1="0" y1="540" x2="1200" y2="540"/><line x1="0" y1="560" x2="1200" y2="560"/>
    <!-- Vertical lines every 20px -->
    <line x1="20" y1="0" x2="20" y2="580"/><line x1="40" y1="0" x2="40" y2="580"/>
    <line x1="60" y1="0" x2="60" y2="580"/><line x1="80" y1="0" x2="80" y2="580"/>
    <line x1="100" y1="0" x2="100" y2="580"/><line x1="120" y1="0" x2="120" y2="580"/>
    <line x1="140" y1="0" x2="140" y2="580"/><line x1="160" y1="0" x2="160" y2="580"/>
    <line x1="180" y1="0" x2="180" y2="580"/><line x1="200" y1="0" x2="200" y2="580"/>
    <line x1="220" y1="0" x2="220" y2="580"/><line x1="240" y1="0" x2="240" y2="580"/>
    <line x1="260" y1="0" x2="260" y2="580"/><line x1="280" y1="0" x2="280" y2="580"/>
    <line x1="300" y1="0" x2="300" y2="580"/><line x1="320" y1="0" x2="320" y2="580"/>
    <line x1="340" y1="0" x2="340" y2="580"/><line x1="360" y1="0" x2="360" y2="580"/>
    <line x1="380" y1="0" x2="380" y2="580"/><line x1="400" y1="0" x2="400" y2="580"/>
    <line x1="420" y1="0" x2="420" y2="580"/><line x1="440" y1="0" x2="440" y2="580"/>
    <line x1="460" y1="0" x2="460" y2="580"/><line x1="480" y1="0" x2="480" y2="580"/>
    <line x1="500" y1="0" x2="500" y2="580"/><line x1="520" y1="0" x2="520" y2="580"/>
    <line x1="540" y1="0" x2="540" y2="580"/><line x1="560" y1="0" x2="560" y2="580"/>
    <line x1="580" y1="0" x2="580" y2="580"/><line x1="600" y1="0" x2="600" y2="580"/>
    <line x1="620" y1="0" x2="620" y2="580"/><line x1="640" y1="0" x2="640" y2="580"/>
    <line x1="660" y1="0" x2="660" y2="580"/><line x1="680" y1="0" x2="680" y2="580"/>
    <line x1="700" y1="0" x2="700" y2="580"/><line x1="720" y1="0" x2="720" y2="580"/>
    <line x1="740" y1="0" x2="740" y2="580"/><line x1="760" y1="0" x2="760" y2="580"/>
    <line x1="780" y1="0" x2="780" y2="580"/><line x1="800" y1="0" x2="800" y2="580"/>
    <line x1="820" y1="0" x2="820" y2="580"/><line x1="840" y1="0" x2="840" y2="580"/>
    <line x1="860" y1="0" x2="860" y2="580"/><line x1="880" y1="0" x2="880" y2="580"/>
    <line x1="900" y1="0" x2="900" y2="580"/><line x1="920" y1="0" x2="920" y2="580"/>
    <line x1="940" y1="0" x2="940" y2="580"/><line x1="960" y1="0" x2="960" y2="580"/>
    <line x1="980" y1="0" x2="980" y2="580"/><line x1="1000" y1="0" x2="1000" y2="580"/>
    <line x1="1020" y1="0" x2="1020" y2="580"/><line x1="1040" y1="0" x2="1040" y2="580"/>
    <line x1="1060" y1="0" x2="1060" y2="580"/><line x1="1080" y1="0" x2="1080" y2="580"/>
    <line x1="1100" y1="0" x2="1100" y2="580"/><line x1="1120" y1="0" x2="1120" y2="580"/>
    <line x1="1140" y1="0" x2="1140" y2="580"/><line x1="1160" y1="0" x2="1160" y2="580"/>
    <line x1="1180" y1="0" x2="1180" y2="580"/>
  </g>

  <!-- ======================== CIRCUIT TRACES (DATA BUSES) ======================== -->
  <!-- Main horizontal bus — top -->
  <g stroke="#2a5a46" stroke-width="1.5" opacity="0.5">
    <line x1="60" y1="120" x2="1140" y2="120"/>
    <line x1="60" y1="125" x2="1140" y2="125"/>
    <line x1="60" y1="130" x2="1140" y2="130"/>
  </g>
  <!-- Main horizontal bus — bottom -->
  <g stroke="#2a5a46" stroke-width="1.5" opacity="0.5">
    <line x1="60" y1="460" x2="1140" y2="460"/>
    <line x1="60" y1="465" x2="1140" y2="465"/>
    <line x1="60" y1="470" x2="1140" y2="470"/>
  </g>

  <!-- Vertical bus left -->
  <g stroke="#2a5a46" stroke-width="1.2" opacity="0.4">
    <line x1="180" y1="60" x2="180" y2="530"/>
    <line x1="185" y1="60" x2="185" y2="530"/>
  </g>
  <!-- Vertical bus right -->
  <g stroke="#2a5a46" stroke-width="1.2" opacity="0.4">
    <line x1="1015" y1="60" x2="1015" y2="530"/>
    <line x1="1020" y1="60" x2="1020" y2="530"/>
  </g>

  <!-- Diagonal traces (artistic) -->
  <g stroke="#2a5a46" stroke-width="0.8" opacity="0.25">
    <polyline points="180,120 220,160 280,160" fill="none"/>
    <polyline points="1020,120 980,160 920,160" fill="none"/>
    <polyline points="180,460 220,420 280,420" fill="none"/>
    <polyline points="1020,460 980,420 920,420" fill="none"/>
    <!-- Traces from CPU to peripherals -->
    <polyline points="540,290 420,290 420,200 340,200" fill="none"/>
    <polyline points="660,290 780,290 780,200 860,200" fill="none"/>
    <polyline points="540,340 420,340 420,420 340,420" fill="none"/>
    <polyline points="660,340 780,340 780,420 860,420" fill="none"/>
    <!-- Central vertical traces -->
    <line x1="600" y1="130" x2="600" y2="250"/>
    <line x1="600" y1="380" x2="600" y2="460"/>
  </g>

  <!-- Secondary traces — finer detail -->
  <g stroke="#1e4438" stroke-width="0.5" opacity="0.3">
    <polyline points="300,120 300,180 380,180 380,250" fill="none"/>
    <polyline points="900,120 900,180 820,180 820,250" fill="none"/>
    <polyline points="300,460 300,400 380,400 380,380" fill="none"/>
    <polyline points="900,460 900,400 820,400 820,380" fill="none"/>
    <line x1="480,160" y1="480" x2="160" y2="480"/>
    <line x1="720,160" y1="720" x2="160" y2="720"/>
  </g>

  <!-- Via holes (solder points) scattered -->
  <g fill="none" stroke="#2a5a46" stroke-width="0.6" opacity="0.35">
    <circle cx="180" cy="120" r="4"/><circle cx="180" cy="460" r="4"/>
    <circle cx="1020" cy="120" r="4"/><circle cx="1020" cy="460" r="4"/>
    <circle cx="300" cy="120" r="3"/><circle cx="450" cy="120" r="3"/>
    <circle cx="750" cy="120" r="3"/><circle cx="900" cy="120" r="3"/>
    <circle cx="300" cy="460" r="3"/><circle cx="450" cy="460" r="3"/>
    <circle cx="750" cy="460" r="3"/><circle cx="900" cy="460" r="3"/>
    <circle cx="600" cy="130" r="3"/><circle cx="600" cy="460" r="3"/>
  </g>
  <g fill="#1a3830" opacity="0.6">
    <circle cx="180" cy="120" r="2"/><circle cx="180" cy="460" r="2"/>
    <circle cx="1020" cy="120" r="2"/><circle cx="1020" cy="460" r="2"/>
  </g>

  <!-- ======================== CENTRAL CPU / COGNITIVE KERNEL ======================== -->
  <g filter="url(#glow-soft)">
    <circle cx="600" cy="310" r="100" fill="url(#cpu-glow)"/>
  </g>

  <!-- CPU package outline -->
  <rect x="525" y="240" width="150" height="140" rx="6" fill="url(#chip-bg)" stroke="#4aff9e" stroke-width="1.2" opacity="0.9"/>
  <rect x="525" y="240" width="150" height="140" rx="6" fill="url(#chip-highlight)"/>

  <!-- CPU pins — top -->
  <g stroke="#4aff9e" stroke-width="1" opacity="0.5">
    <line x1="555" y1="228" x2="555" y2="240"/>
    <line x1="575" y1="228" x2="575" y2="240"/>
    <line x1="595" y1="228" x2="595" y2="240"/>
    <line x1="615" y1="228" x2="615" y2="240"/>
    <line x1="635" y1="228" x2="635" y2="240"/>
    <line x1="655" y1="228" x2="655" y2="240"/>
  </g>
  <!-- CPU pins — bottom -->
  <g stroke="#4aff9e" stroke-width="1" opacity="0.5">
    <line x1="555" y1="380" x2="555" y2="392"/>
    <line x1="575" y1="380" x2="575" y2="392"/>
    <line x1="595" y1="380" x2="595" y2="392"/>
    <line x1="615" y1="380" x2="615" y2="392"/>
    <line x1="635" y1="380" x2="635" y2="392"/>
    <line x1="655" y1="380" x2="655" y2="392"/>
  </g>
  <!-- CPU pins — left -->
  <g stroke="#4aff9e" stroke-width="1" opacity="0.5">
    <line x1="513" y1="260" x2="525" y2="260"/>
    <line x1="513" y1="280" x2="525" y2="280"/>
    <line x1="513" y1="300" x2="525" y2="300"/>
    <line x1="513" y1="320" x2="525" y2="320"/>
    <line x1="513" y1="340" x2="525" y2="340"/>
    <line x1="513" y1="360" x2="525" y2="360"/>
  </g>
  <!-- CPU pins — right -->
  <g stroke="#4aff9e" stroke-width="1" opacity="0.5">
    <line x1="675" y1="260" x2="687" y2="260"/>
    <line x1="675" y1="280" x2="687" y2="280"/>
    <line x1="675" y1="300" x2="687" y2="300"/>
    <line x1="675" y1="320" x2="687" y2="320"/>
    <line x1="675" y1="340" x2="687" y2="340"/>
    <line x1="675" y1="360" x2="687" y2="360"/>
  </g>

  <!-- CPU die -->
  <rect x="548" y="262" width="104" height="96" rx="3" fill="#0a1a14" stroke="#4aff9e" stroke-width="0.6" opacity="0.7"/>
  <!-- Die detail lines -->
  <g stroke="#4aff9e" stroke-width="0.3" opacity="0.3">
    <line x1="560" y1="275" x2="640" y2="275"/>
    <line x1="560" y1="290" x2="640" y2="290"/>
    <line x1="560" y1="305" x2="640" y2="305"/>
    <line x1="560" y1="320" x2="640" y2="320"/>
    <line x1="560" y1="335" x2="640" y2="335"/>
    <line x1="560" y1="345" x2="640" y2="345"/>
    <line x1="580" y1="265" x2="580" y2="355"/>
    <line x1="620" y1="265" x2="620" y2="355"/>
  </g>

  <!-- CPU Label -->
  <text x="600" y="312" font-family="'Courier New', monospace" font-size="10" font-weight="700" fill="#4aff9e" text-anchor="middle" letter-spacing="2" opacity="0.9">COGNITIVE</text>
  <text x="600" y="325" font-family="'Courier New', monospace" font-size="10" font-weight="700" fill="#4aff9e" text-anchor="middle" letter-spacing="2" opacity="0.9">KERNEL</text>

  <!-- ======================== PERIPHERAL CHIPS ======================== -->

  <!-- Process Fabric chip (top-left) -->
  <g transform="translate(280, 155)">
    <use href="#small-chip" width="60" height="45"/>
    <text x="30" y="55" font-family="'Courier New', monospace" font-size="6" fill="#4aff9e" text-anchor="middle" opacity="0.6" letter-spacing="1">PROCESS</text>
  </g>

  <!-- Memory Plane chip (top-right) -->
  <g transform="translate(860, 155)">
    <use href="#small-chip" width="60" height="45"/>
    <text x="30" y="55" font-family="'Courier New', monospace" font-size="6" fill="#4aff9e" text-anchor="middle" opacity="0.6" letter-spacing="1">MEMORY</text>
  </g>

  <!-- Operator Fabric chip (bottom-left) -->
  <g transform="translate(280, 395)">
    <use href="#small-chip" width="60" height="45"/>
    <text x="30" y="55" font-family="'Courier New', monospace" font-size="6" fill="#4aff9e" text-anchor="middle" opacity="0.6" letter-spacing="1">OPERATOR</text>
  </g>

  <!-- Governance Plane chip (bottom-right) -->
  <g transform="translate(860, 395)">
    <use href="#small-chip" width="60" height="45"/>
    <text x="30" y="55" font-family="'Courier New', monospace" font-size="6" fill="#4aff9e" text-anchor="middle" opacity="0.6" letter-spacing="1">GOVERNANCE</text>
  </g>

  <!-- Extra small chips scattered for detail -->
  <g transform="translate(100, 85)" opacity="0.5">
    <use href="#small-chip" width="40" height="30"/>
  </g>
  <g transform="translate(1060, 85)" opacity="0.5">
    <use href="#small-chip" width="40" height="30"/>
  </g>
  <g transform="translate(100, 470)" opacity="0.5">
    <use href="#small-chip" width="40" height="30"/>
  </g>
  <g transform="translate(1060, 470)" opacity="0.5">
    <use href="#small-chip" width="40" height="30"/>
  </g>

  <!-- ======================== AGENTS (ROBOTS) ======================== -->

  <!-- Agent 1: on top of CPU, orchestrating (the Kernel Agent) -->
  <g transform="translate(583, 195)" filter="url(#glow-cyan)">
    <use href="#agent" width="34" height="41"/>
  </g>

  <!-- Agent 2: at Process Fabric chip, carrying data -->
  <g transform="translate(293, 105)" filter="url(#glow-cyan)">
    <use href="#agent" width="28" height="34"/>
  </g>

  <!-- Agent 3: at Memory Plane chip, reading -->
  <g transform="translate(878, 108)" filter="url(#glow-cyan)">
    <use href="#agent" width="28" height="34"/>
  </g>

  <!-- Agent 4: at Operator Fabric chip, working -->
  <g transform="translate(293, 352)" filter="url(#glow-cyan)">
    <use href="#agent" width="28" height="34"/>
  </g>

  <!-- Agent 5: at Governance Plane chip, inspecting -->
  <g transform="translate(878, 350)" filter="url(#glow-cyan)">
    <use href="#agent" width="28" height="34"/>
  </g>

  <!-- Agent 6: walking along the top bus (in transit) -->
  <g transform="translate(465, 82)" filter="url(#glow-cyan)" opacity="0.8">
    <use href="#agent" width="24" height="29"/>
  </g>

  <!-- Agent 7: walking along the bottom bus -->
  <g transform="translate(695, 432)" filter="url(#glow-cyan)" opacity="0.8">
    <use href="#agent" width="24" height="29"/>
  </g>

  <!-- Agent 8: near left vertical bus -->
  <g transform="translate(160, 270)" filter="url(#glow-cyan)" opacity="0.6">
    <use href="#agent" width="22" height="27"/>
  </g>

  <!-- Agent 9: near right vertical bus -->
  <g transform="translate(1024, 280)" filter="url(#glow-cyan)" opacity="0.6">
    <use href="#agent" width="22" height="27"/>
  </g>

  <!-- ======================== DATA PULSES (signals flowing) ======================== -->
  <!-- Pulses on top bus -->
  <g filter="url(#glow-cyan)">
    <use href="#pulse" x="368" y="122" width="6" height="6"/>
    <use href="#pulse" x="548" y="122" width="6" height="6"/>
    <use href="#pulse" x="790" y="122" width="6" height="6"/>
    <use href="#pulse" x="950" y="122" width="6" height="6"/>
  </g>
  <!-- Pulses on bottom bus -->
  <g filter="url(#glow-cyan)">
    <use href="#pulse" x="248" y="462" width="6" height="6"/>
    <use href="#pulse" x="520" y="462" width="6" height="6"/>
    <use href="#pulse" x="830" y="462" width="6" height="6"/>
  </g>
  <!-- Pulses on vertical buses -->
  <g filter="url(#glow-cyan)" opacity="0.7">
    <use href="#pulse" x="179" y="200" width="5" height="5"/>
    <use href="#pulse" x="179" y="380" width="5" height="5"/>
    <use href="#pulse" x="1015" y="180" width="5" height="5"/>
    <use href="#pulse" x="1015" y="400" width="5" height="5"/>
  </g>
  <!-- Pulses on traces to CPU -->
  <g filter="url(#glow-cyan)" opacity="0.6">
    <use href="#pulse" x="480" y="288" width="5" height="5"/>
    <use href="#pulse" x="715" y="288" width="5" height="5"/>
    <use href="#pulse" x="480" y="338" width="5" height="5"/>
    <use href="#pulse" x="715" y="338" width="5" height="5"/>
    <use href="#pulse" x="597" y="218" width="5" height="5"/>
    <use href="#pulse" x="597" y="408" width="5" height="5"/>
  </g>

  <!-- ======================== DECORATIVE CAPACITORS / RESISTORS ======================== -->
  <g opacity="0.3">
    <!-- Tiny capacitor shapes -->
    <rect x="430" y="185" width="8" height="12" rx="1" fill="none" stroke="#2a5a46" stroke-width="0.8"/>
    <rect x="760" y="185" width="8" height="12" rx="1" fill="none" stroke="#2a5a46" stroke-width="0.8"/>
    <rect x="430" y="410" width="8" height="12" rx="1" fill="none" stroke="#2a5a46" stroke-width="0.8"/>
    <rect x="760" y="410" width="8" height="12" rx="1" fill="none" stroke="#2a5a46" stroke-width="0.8"/>
    <!-- Tiny resistor shapes -->
    <rect x="230" y="290" width="14" height="6" rx="1" fill="#1a2e28" stroke="#2a5a46" stroke-width="0.6"/>
    <rect x="956" y="290" width="14" height="6" rx="1" fill="#1a2e28" stroke="#2a5a46" stroke-width="0.6"/>
    <rect x="500" y="500" width="14" height="6" rx="1" fill="#1a2e28" stroke="#2a5a46" stroke-width="0.6"/>
    <rect x="686" y="500" width="14" height="6" rx="1" fill="#1a2e28" stroke="#2a5a46" stroke-width="0.6"/>
  </g>

  <!-- Edge connector pads (left side) -->
  <g fill="#1a3830" stroke="#2a5a46" stroke-width="0.5" opacity="0.4">
    <rect x="20" y="140" width="25" height="8" rx="1"/>
    <rect x="20" y="160" width="25" height="8" rx="1"/>
    <rect x="20" y="180" width="25" height="8" rx="1"/>
    <rect x="20" y="200" width="25" height="8" rx="1"/>
    <rect x="20" y="380" width="25" height="8" rx="1"/>
    <rect x="20" y="400" width="25" height="8" rx="1"/>
    <rect x="20" y="420" width="25" height="8" rx="1"/>
    <rect x="20" y="440" width="25" height="8" rx="1"/>
  </g>

  <!-- Edge connector pads (right side) -->
  <g fill="#1a3830" stroke="#2a5a46" stroke-width="0.5" opacity="0.4">
    <rect x="1155" y="140" width="25" height="8" rx="1"/>
    <rect x="1155" y="160" width="25" height="8" rx="1"/>
    <rect x="1155" y="180" width="25" height="8" rx="1"/>
    <rect x="1155" y="200" width="25" height="8" rx="1"/>
    <rect x="1155" y="380" width="25" height="8" rx="1"/>
    <rect x="1155" y="400" width="25" height="8" rx="1"/>
    <rect x="1155" y="420" width="25" height="8" rx="1"/>
    <rect x="1155" y="440" width="25" height="8" rx="1"/>
  </g>

  <!-- ======================== TITLE AREA ======================== -->
  <!-- Dark band for title -->
  <rect x="0" y="570" width="1200" height="250" fill="#050d0a" opacity="0.9"/>
  <line x1="80" y1="585" x2="1120" y2="585" stroke="#4aff9e" stroke-width="0.5" opacity="0.25"/>

  <!-- Epigraph -->
  <text x="600" y="622" font-family="'Segoe UI', system-ui, sans-serif" font-size="15" font-style="italic" fill="#7abfa8" text-anchor="middle" letter-spacing="0.5" opacity="0.85">&quot;The next abstraction in software is not the agent.</text>
  <text x="600" y="644" font-family="'Segoe UI', system-ui, sans-serif" font-size="15" font-style="italic" fill="#7abfa8" text-anchor="middle" letter-spacing="0.5" opacity="0.85">It is the operating system around agency.&quot;</text>

  <!-- Separator -->
  <line x1="480" y1="665" x2="720" y2="665" stroke="#4aff9e" stroke-width="0.5" opacity="0.2"/>

  <!-- Title -->
  <text x="600" y="710" font-family="'Segoe UI', system-ui, sans-serif" font-size="52" font-weight="300" fill="#d0f0e0" text-anchor="middle" letter-spacing="8" filter="url(#glow-text)">THE AGENTIC OS</text>

  <!-- Subtitle -->
  <text x="600" y="752" font-family="'Segoe UI', system-ui, sans-serif" font-size="16" fill="#4aff9e" text-anchor="middle" letter-spacing="4" opacity="0.75">AN OPERATING SYSTEM MODEL FOR GOVERNED AGENCY</text>
</svg>
